<svg xmlns="http://www.w3.org/2000/svg" viewBox="0 0 200 200">
  <!-- 苹果身体 -->
  <circle cx="100" cy="110" r="65" fill="#EF4444" />
  <circle cx="100" cy="110" r="50" fill="#F87171" opacity="0.3" />

  <!-- 高光 -->
  <ellipse cx="75" cy="85" rx="15" ry="20" fill="white" opacity="0.4" />

  <!-- 茎 -->
  <rect x="95" y="40" width="10" height="20" fill="#78350F" />
  <ellipse cx="110" cy="45" rx="20" ry="12" fill="#22C55E" />

  <!-- 可爱眼睛 -->
  <ellipse cx="80" cy="100" rx="12" ry="15" fill="white" />
  <ellipse cx="120" cy="100" rx="12" ry="15" fill="white" />
  <circle cx="83" cy="103" r="7" fill="#333" />
  <circle cx="123" cy="103" r="7" fill="#333" />
  <circle cx="86" cy="100" r="3" fill="white" />
  <circle cx="126" cy="100" r="3" fill="white" />

  <!-- 微笑嘴巴 -->
  <path d="M 85 125 Q 100 140 115 125" stroke="#DC2626" stroke-width="4" fill="none" stroke-linecap="round" />

  <!-- 腮红 -->
  <ellipse cx="60" cy="115" rx="12" ry="8" fill="#FCA5A5" opacity="0.5" />
  <ellipse cx="140" cy="115" rx="12" ry="8" fill="#FCA5A5" opacity="0.5" />

  <!-- 小手小脚 -->
  <ellipse cx="35" cy="130" rx="18" ry="20" fill="#EF4444" />
  <ellipse cx="165" cy="130" rx="18" ry="20" fill="#EF4444" />
  <ellipse cx="75" cy="175" rx="20" ry="10" fill="#EF4444" />
  <ellipse cx="125" cy="175" rx="20" ry="10" fill="#EF4444" />

  <!-- 键盘按键 -->
  <rect x="85" y="60" width="14" height="14" rx="3" fill="#FCD34D" />
  <rect x="101" y="60" width="14" height="14" rx="3" fill="#FCD34D" />
  <text x="90" y="71" font-size="10" fill="#B45309" font-weight="bold">Q</text>
  <text x="106" y="71" font-size="10" fill="#B45309" font-weight="bold">W</text>
</svg>
